<?xml version="1.0" standalone="no"?>
<!DOCTYPE svg PUBLIC "-//W3C//DTD SVG 20010904//EN"
 "http://www.w3.org/TR/2001/REC-SVG-20010904/DTD/svg10.dtd">
<svg version="1.0" xmlns="http://www.w3.org/2000/svg"
 width="500.000000pt" height="500.000000pt" viewBox="0 0 500.000000 500.000000"
 preserveAspectRatio="xMidYMid meet">

<g transform="translate(0.000000,500.000000) scale(0.100000,-0.100000)"
fill="#000000" stroke="none">
<path d="M2322 4489 c-321 -27 -650 -143 -931 -330 -830 -551 -1123 -1643
-683 -2538 533 -1084 1894 -1450 2901 -780 830 551 1123 1643 683 2538 -312
634 -930 1054 -1636 1111 -143 11 -184 11 -334 -1z m140 -1125 c-60 -51 -86
-105 -85 -178 1 -50 9 -75 54 -165 58 -117 67 -166 35 -213 -21 -31 -102 -74
-161 -84 l-40 -7 33 31 c57 54 47 123 -34 228 -18 25 -41 70 -50 101 -36 124
35 228 204 299 80 33 94 29 44 -12z m142 -299 c-19 -29 -13 -63 18 -105 31
-43 35 -109 8 -143 -22 -28 -74 -59 -120 -71 l-25 -7 26 23 c56 49 62 95 24
176 -38 83 -30 115 35 141 44 17 52 14 34 -14z m676 -455 l0 -60 43 0 c58 0
153 -26 188 -51 56 -39 84 -124 68 -201 -27 -123 -148 -201 -357 -229 -84 -11
-88 -13 -136 -60 -52 -51 -150 -108 -243 -140 -52 -17 -85 -19 -415 -19 -337
0 -362 1 -421 21 -103 34 -178 80 -247 149 -76 76 -123 158 -150 264 -18 70
-40 261 -40 349 l0 37 855 0 855 0 0 -60z m-100 -815 c0 -9 -11 -27 -25 -40
-23 -24 -28 -25 -175 -25 -137 0 -152 -2 -170 -20 -19 -19 -33 -20 -344 -20
-308 0 -324 1 -349 20 -23 18 -40 20 -172 20 l-147 0 -29 29 c-16 16 -29 34
-29 40 0 8 212 11 720 11 643 0 720 -2 720 -15z"/>
<path d="M3261 2364 c-7 -38 -20 -93 -30 -123 l-19 -53 44 6 c64 8 141 44 169
78 18 21 25 41 25 72 0 61 -24 79 -109 84 l-67 4 -13 -68z"/>
</g>
</svg>
